<svg width="24" height="25" viewBox="0 0 24 25" fill="none" xmlns="http://www.w3.org/2000/svg">
<path fill-rule="evenodd" clip-rule="evenodd" d="M12 0.821899C5.37 0.821899 0 6.1919 0 12.8219C0 18.1319 3.435 22.6169 8.205 24.2069C8.805 24.3119 9.03 23.9519 9.03 23.6369C9.03 23.3519 9.015 22.4069 9.015 21.4019C6 21.9569 5.22 20.6669 4.98 19.9919C4.845 19.6469 4.26 18.5819 3.75 18.2969C3.33 18.0719 2.73 17.5169 3.735 17.5019C4.68 17.4869 5.355 18.3719 5.58 18.7319C6.66 20.5469 8.385 20.0369 9.075 19.7219C9.18 18.9419 9.495 18.4169 9.84 18.1169C7.17 17.8169 4.38 16.7819 4.38 12.1919C4.38 10.8869 4.845 9.8069 5.61 8.9669C5.49 8.6669 5.07 7.4369 5.73 5.7869C5.73 5.7869 6.735 5.4719 9.03 7.0169C9.99 6.7469 11.01 6.6119 12.03 6.6119C13.05 6.6119 14.07 6.7469 15.03 7.0169C17.325 5.4569 18.33 5.7869 18.33 5.7869C18.99 7.4369 18.57 8.6669 18.45 8.9669C19.215 9.8069 19.68 10.8719 19.68 12.1919C19.68 16.7969 16.875 17.8169 14.205 18.1169C14.64 18.4919 15.015 19.2119 15.015 20.3369C15.015 21.9419 15 23.2319 15 23.6369C15 23.9519 15.225 24.3269 15.825 24.2069C18.2072 23.4026 20.2772 21.8716 21.7437 19.8293C23.2101 17.7869 23.9993 15.3362 24 12.8219C24 6.1919 18.63 0.821899 12 0.821899Z" fill="#602915"/>
</svg>
