<svg width="28" height="28" fill="none" xmlns="http://www.w3.org/2000/svg"><path d="M27.558 13.939c0-.004-.003-.004-.003-.007l-.055-.069c-.003-.003-.007-.01-.013-.013-.021-.026-.046-.052-.068-.078L15.484 1.146l-.8-.847A.946.946 0 0 0 13.998 0a.946.946 0 0 0-.685.3L.578 13.774c-.23.242-.4.541-.495.87l-.018.069-.01.036-.009.039c-.006.023-.009.046-.012.069 0 .003 0 .01-.003.013a1.903 1.903 0 0 0-.031.297v.108c0 .017 0 .033.003.05 0 .016 0 .029.003.045 0 .016.003.033.003.05 0 .019.003.038.006.058 0 .01.004.02.004.03l.009.081v.003c.157.998.994 1.75 1.977 1.75h1.312V28h21.366V17.35h1.34c.266 0 .522-.056.757-.16a2.053 2.053 0 0 0 1.071-1.135c.1-.254.15-.527.149-.802 0-.48-.154-.941-.442-1.314Zm-11.83 11.707h-3.46v-6.671h3.46v6.67Zm6.73-10.651v10.65h-4.753V18.19c0-.723-.553-1.308-1.235-1.308h-4.943c-.682 0-1.235.585-1.235 1.308v7.456H5.538V14.995H2.573l11.428-12.09.714.756 10.712 11.334h-2.968Z" fill="#602915"/></svg>