<svg width="55" height="55" viewBox="0 0 55 55" fill="none" xmlns="http://www.w3.org/2000/svg">
<path d="M27.5 0C12.3122 0 0 12.3122 0 27.5C0 42.6878 12.3122 55 27.5 55C42.6877 55 55 42.6878 55 27.5C55 12.3122 42.6877 0 27.5 0ZM27.5 5.97534C39.3877 5.97534 49.0213 15.6152 49.0213 27.5C49.0213 39.3848 39.3877 49.0213 27.5 49.0213C15.6122 49.0213 5.97868 39.3848 5.97868 27.5C5.97873 15.6152 15.6122 5.97534 27.5 5.97534ZM38.0374 14.4415L22.0987 30.3836L16.929 25.2139L11.8567 30.2829L17.0264 35.4526L22.1322 40.5585L27.2013 35.4861L43.1433 19.5474L38.0374 14.4415V14.4415Z" fill="#D9734E"/>
</svg>