<svg width="24" height="25" viewBox="0 0 24 25" fill="none" xmlns="http://www.w3.org/2000/svg">
<g clip-path="url(#clip0_1815_9673)">
<path d="M9.0625 18.4738H9.5625V17.9738V10.1538V9.65375H9.0625H8.25049C8.5985 9.58481 8.90379 9.42826 9.14219 9.1958C9.47098 8.8752 9.6425 8.43895 9.6425 7.9775H9.64262L9.64238 7.96657C9.63237 7.50844 9.46511 7.07668 9.14319 6.75796C8.81931 6.43731 8.37195 6.26375 7.86375 6.26375C7.35713 6.26375 6.90436 6.43612 6.57533 6.75331C6.24622 7.07057 6.06875 7.50652 6.06875 7.9775C6.06875 8.79893 6.60867 9.48462 7.43104 9.65375H6.6325H6.1325V10.1538V17.9738V18.4738H6.6325H9.0625ZM17.9375 18.4738H18.4375V17.9738V13.35C18.4375 12.1158 18.1157 11.139 17.5101 10.4654C16.8994 9.78612 16.0548 9.47625 15.14 9.47625C14.2487 9.47625 13.5617 9.77693 13.0674 10.15L13.0624 10.1016L13.0164 9.6525H12.565H10.4538H9.93008L9.95428 10.1756C9.98662 10.8746 10.0175 11.6822 10.0175 12.6475V17.9725V18.4725H10.5175H12.9487H13.4487V17.9725V13.4638C13.4487 13.2418 13.4684 13.1052 13.4927 13.0457L13.4928 13.0457L13.495 13.0399C13.6271 12.7055 13.8838 12.4462 14.2763 12.4462C14.5634 12.4462 14.708 12.5459 14.8052 12.6919C14.9245 12.8711 15.0075 13.1795 15.0075 13.64V17.9738V18.4738H15.5075H17.9375ZM0.5 13C0.5 6.64864 5.64864 1.5 12 1.5C18.3514 1.5 23.5 6.64864 23.5 13C23.5 19.3514 18.3514 24.5 12 24.5C5.64864 24.5 0.5 19.3514 0.5 13Z" fill="#602915" stroke="#602915"/>
</g>
<defs>
<clipPath id="clip0_1815_9673">
<rect width="24" height="24" fill="white" transform="translate(0 0.821899)"/>
</clipPath>
</defs>
</svg>
