<svg width="28" height="26" viewBox="0 0 28 26" fill="none" xmlns="http://www.w3.org/2000/svg">
<path d="M3.6001 5.8H24.4001L22.3461 22.864C22.2757 23.4513 21.9731 23.9939 21.4962 24.388C21.0194 24.7821 20.4018 25 19.7617 25H8.2385C7.59842 25 6.98083 24.7821 6.50397 24.388C6.02711 23.9939 5.72451 23.4513 5.6541 22.864L3.6001 5.8Z" stroke="#602915" stroke-width="2" stroke-linecap="round" stroke-linejoin="round"/>
<path d="M7.9487 2.3764C8.15897 1.96476 8.49171 1.6168 8.9081 1.37309C9.32449 1.12939 9.80736 0.999995 10.3004 1H17.7C18.1932 0.999767 18.6764 1.12906 19.093 1.37277C19.5097 1.61649 19.8426 1.96458 20.053 2.3764L21.8002 5.8H6.2002L7.9487 2.3764Z" stroke="#602915" stroke-width="2" stroke-linecap="round" stroke-linejoin="round"/>
<path d="M1 5.8H27" stroke="#602915" stroke-width="2" stroke-linecap="round" stroke-linejoin="round"/>
<path d="M11.3999 11.8V17.8" stroke="#602915" stroke-width="2" stroke-linecap="round" stroke-linejoin="round"/>
<path d="M16.6001 11.8V17.8" stroke="#602915" stroke-width="2" stroke-linecap="round" stroke-linejoin="round"/>
</svg>