<svg width="20" height="22" viewBox="0 0 20 22" fill="none" xmlns="http://www.w3.org/2000/svg">
<path d="M3.25 21.25C4.49264 21.25 5.5 20.2427 5.5 19C5.5 17.7574 4.49264 16.75 3.25 16.75C2.00736 16.75 1 17.7574 1 19C1 20.2427 2.00736 21.25 3.25 21.25Z" stroke="white" stroke-width="1.5" stroke-linecap="round" stroke-linejoin="round"/>
<path d="M15.625 21.25C16.8676 21.25 17.875 20.2427 17.875 19C17.875 17.7574 16.8676 16.75 15.625 16.75C14.3824 16.75 13.375 17.7574 13.375 19C13.375 20.2427 14.3824 21.25 15.625 21.25Z" stroke="white" stroke-width="1.5" stroke-linecap="round" stroke-linejoin="round"/>
<path d="M15.625 16.75H3.25V1H1" stroke="white" stroke-width="1.5" stroke-linecap="round" stroke-linejoin="round"/>
<path d="M3.25 3.25L19 4.375L17.875 12.25H3.25" stroke="white" stroke-width="1.5" stroke-linecap="round" stroke-linejoin="round"/>
</svg>
