<svg width="24" height="24" viewBox="0 0 24 24" fill="none" xmlns="http://www.w3.org/2000/svg">
<path d="M9.0625 17.4738H9.5625V16.9738V9.15375V8.65375H9.0625H8.25049C8.5985 8.58481 8.90379 8.42826 9.14219 8.1958C9.47098 7.8752 9.6425 7.43895 9.6425 6.9775H9.64262L9.64238 6.96657C9.63237 6.50844 9.46511 6.07668 9.14319 5.75796C8.81931 5.43731 8.37195 5.26375 7.86375 5.26375C7.35713 5.26375 6.90436 5.43612 6.57533 5.75331C6.24622 6.07057 6.06875 6.50652 6.06875 6.9775C6.06875 7.79893 6.60867 8.48462 7.43104 8.65375H6.6325H6.1325V9.15375V16.9738V17.4738H6.6325H9.0625ZM17.9375 17.4738H18.4375V16.9738V12.35C18.4375 11.1158 18.1157 10.139 17.5101 9.4654C16.8994 8.78612 16.0548 8.47625 15.14 8.47625C14.2487 8.47625 13.5617 8.77693 13.0674 9.15004L13.0624 9.10156L13.0164 8.6525H12.565H10.4538H9.93008L9.95428 9.17561C9.98662 9.87457 10.0175 10.6822 10.0175 11.6475V16.9725V17.4725H10.5175H12.9487H13.4487V16.9725V12.4638C13.4487 12.2418 13.4684 12.1052 13.4927 12.0457L13.4928 12.0457L13.495 12.0399C13.6271 11.7055 13.8838 11.4462 14.2763 11.4462C14.5634 11.4462 14.708 11.5459 14.8052 11.6919C14.9245 11.8711 15.0075 12.1795 15.0075 12.64V16.9738V17.4738H15.5075H17.9375ZM0.5 12C0.5 5.64864 5.64864 0.5 12 0.5C18.3514 0.5 23.5 5.64864 23.5 12C23.5 18.3514 18.3514 23.5 12 23.5C5.64864 23.5 0.5 18.3514 0.5 12Z" fill="#602915" stroke="#602915"/>
</svg>
