<svg width="32" height="27" viewBox="0 0 32 27" fill="none" xmlns="http://www.w3.org/2000/svg">
<path d="M31.1649 8.64588C30.6918 8.64588 30.3299 8.28403 30.3299 7.81083C30.3299 5.36136 24.4846 2.63354 16.1063 2.63354C8.53515 2.63354 2.96817 4.8325 1.7991 6.97579H9.31453C9.78772 6.97579 10.1496 7.33764 10.1496 7.81083C10.1496 8.28403 9.78772 8.64588 9.31453 8.64588H1.43725C0.964053 8.64588 0.54653 8.4232 0.26818 8.03351C-0.0101688 7.67166 -0.0658386 7.17063 0.073336 6.75311C1.21457 3.38508 7.95062 0.935608 16.1063 0.935608C25.1526 0.935608 32 3.88611 32 7.81083C32 8.25619 31.6381 8.64588 31.1649 8.64588ZM25.7093 19.9747C25.0969 19.9747 24.5124 19.7242 24.067 19.2788C23.6217 18.8335 23.399 18.2489 23.399 17.6366C23.399 17.1634 23.7609 16.8015 24.234 16.8015C24.7072 16.8015 25.0691 17.1912 25.0691 17.6366C25.0691 17.8036 25.1248 17.9706 25.2639 18.1098C25.4031 18.2489 25.5423 18.3046 25.7371 18.3046C26.099 18.3046 26.3773 18.0262 26.3773 17.6644L26.4052 12.8211C26.4052 11.9582 26.8784 11.151 27.6577 10.7613C27.9083 10.65 28.1309 10.5108 28.3258 10.3716C28.7155 10.1211 29.2443 10.2603 29.467 10.65C29.7175 11.0397 29.5784 11.5685 29.1887 11.7912C28.9382 11.9304 28.6876 12.0974 28.4093 12.2366C28.2144 12.3479 28.0753 12.5706 28.0753 12.8211L28.0474 17.6644C28.0196 18.917 26.9897 19.9747 25.7093 19.9747Z" fill="#5E3E00"/>
<path d="M19.6969 22.953C19.0845 22.953 18.5 22.7025 18.0546 22.2571C17.6093 21.8118 17.3866 21.2273 17.3866 20.6149V18.3046C17.3866 17.8314 17.7763 17.4695 18.2216 17.4695C18.6948 17.4695 19.0567 17.8592 19.0567 18.3046V20.6149C19.0567 20.7819 19.1124 20.9489 19.2515 21.0881C19.3907 21.2273 19.5299 21.2829 19.7247 21.2829C20.0866 21.2829 20.3649 21.0046 20.3649 20.6427V14.7417C20.3649 13.6283 21.1721 12.6541 22.2855 12.4593H22.3134C23.0092 12.3201 23.7051 12.5149 24.234 12.9603C24.7628 13.4056 25.069 14.0737 25.069 14.7696C25.069 15.2427 24.6793 15.6046 24.234 15.6046C23.7608 15.6046 23.3989 15.2149 23.3989 14.7696C23.3989 14.4912 23.2598 14.3242 23.1484 14.2685C23.0649 14.185 22.8701 14.0737 22.5917 14.1294H22.5639C22.2577 14.185 22.0072 14.4634 22.0072 14.7974L21.9794 20.6984C22.0072 21.9231 20.9773 22.953 19.6969 22.953Z" fill="#5E3E00"/>
<path d="M18.2218 16.1334C17.7486 16.1334 17.3867 15.7437 17.3867 15.2984C17.3867 15.1314 17.3311 14.9644 17.1919 14.8252C17.0805 14.7138 16.9135 14.6303 16.7465 14.6303C16.3012 14.6303 15.8836 14.6303 15.4383 14.6303C14.6311 14.6025 13.9074 14.185 13.4898 13.4891C13.0723 12.7932 13.0445 11.9582 13.4063 11.2345L15.3826 7.36543C15.6053 6.9479 16.1063 6.78089 16.496 7.00357C16.9135 7.22625 17.0805 7.72728 16.8579 8.11697L14.8816 11.986C14.7424 12.2644 14.8537 12.5149 14.9094 12.5984C14.9651 12.6819 15.1321 12.9046 15.4661 12.9046C15.8836 12.9046 16.3012 12.9046 16.7187 12.9046C17.3589 12.9046 17.9434 13.1273 18.3609 13.5726C18.8063 14.018 19.0568 14.6025 19.0568 15.2427C19.0568 15.7716 18.6671 16.1334 18.2218 16.1334ZM12.3486 8.64583C12.2929 8.64583 12.2373 8.64583 12.1816 8.618C12.1259 8.618 12.0703 8.59016 12.0146 8.56233C11.9589 8.53449 11.9032 8.50666 11.8754 8.47882C11.8197 8.45099 11.7919 8.42315 11.7362 8.36748C11.7084 8.33965 11.6527 8.28398 11.6249 8.22831C11.5971 8.17264 11.5692 8.1448 11.5414 8.08913C11.5136 8.03346 11.5136 7.97779 11.4857 7.92212C11.4857 7.86645 11.4579 7.81079 11.4579 7.75512C11.4579 7.53244 11.5414 7.30976 11.7084 7.17058C11.7362 7.14275 11.7919 7.08708 11.8476 7.05924C11.9032 7.03141 11.9311 7.00357 11.9867 6.97574C12.0424 6.9479 12.0981 6.9479 12.1538 6.92007C12.4321 6.8644 12.7105 6.9479 12.9053 7.14275C12.9331 7.17058 12.9888 7.22625 13.0166 7.28192C13.0445 7.33759 13.0723 7.36543 13.1001 7.4211C13.128 7.47677 13.128 7.53244 13.1558 7.58811C13.1558 7.64378 13.1837 7.69945 13.1837 7.75512C13.1837 7.81079 13.1837 7.86645 13.1558 7.92212C13.1558 7.97779 13.128 8.03346 13.1001 8.08913C13.0723 8.1448 13.0445 8.20047 13.0166 8.22831C12.9888 8.28398 12.961 8.31181 12.9053 8.36748C12.7661 8.56233 12.5713 8.64583 12.3486 8.64583Z" fill="#5E3E00"/>
<path d="M16.1062 26.7108C15.5495 26.7108 15.0207 26.7108 14.464 26.6829C13.2114 26.6273 12.2372 25.5974 12.2372 24.3448L12.265 16.718C12.265 16.2448 12.6269 15.883 13.1001 15.883C13.5733 15.883 13.9351 16.2727 13.9351 16.718L13.9073 24.3448C13.9073 24.7067 14.1856 25.0128 14.5475 25.0128C15.0763 25.0407 15.6052 25.0407 16.1062 25.0407C24.4845 25.0407 30.3299 22.3129 30.3299 19.8634C30.3299 19.3902 30.6917 19.0283 31.1649 19.0283C31.6381 19.0283 32 19.3902 32 19.8634C32 23.7603 25.1526 26.7108 16.1062 26.7108Z" fill="#5E3E00"/>
<path d="M13.0723 20.6984H2.55066C1.27025 20.6984 0.212524 19.6407 0.212524 18.3603V10.817C0.212524 10.3438 0.574378 9.98199 1.04757 9.98199C1.52077 9.98199 1.88262 10.3438 1.88262 10.817V18.3603C1.88262 18.7222 2.1888 19.0283 2.55066 19.0283H13.0723C13.5455 19.0283 13.9073 19.3902 13.9073 19.8634C13.9073 20.3366 13.5455 20.6984 13.0723 20.6984Z" fill="#5E3E00"/>
<path d="M31.165 14.2128C30.6918 14.2128 30.33 13.851 30.33 13.3778V7.81082C30.33 7.33762 30.6918 6.97577 31.165 6.97577C31.6382 6.97577 32.0001 7.33762 32.0001 7.81082V13.3778C32.0001 13.8232 31.6382 14.2128 31.165 14.2128Z" fill="#5E3E00"/>
<path d="M31.1649 17.5531C30.9422 17.5531 30.7195 17.4696 30.5804 17.3026C30.5525 17.2747 30.4968 17.2191 30.469 17.1634C30.4412 17.1077 30.4133 17.0799 30.3855 17.0242C30.3577 16.9686 30.3577 16.9129 30.3298 16.8572C30.302 16.8015 30.302 16.7459 30.302 16.6902C30.302 16.4675 30.3855 16.2448 30.5525 16.1057C30.8587 15.7995 31.4154 15.7995 31.7216 16.1057C31.8886 16.2727 31.9721 16.4675 31.9721 16.6902C31.9721 16.7459 31.9721 16.8015 31.9443 16.8572C31.9164 16.9129 31.9164 16.9686 31.8886 17.0242C31.8608 17.0799 31.8329 17.1356 31.8051 17.1634C31.7773 17.2191 31.7494 17.2469 31.6937 17.3026C31.6102 17.4696 31.3876 17.5531 31.1649 17.5531Z" fill="#5E3E00"/>
</svg>
