<svg width="20" height="36" viewBox="0 0 20 36" fill="none" xmlns="http://www.w3.org/2000/svg">
<path d="M10.3274 3.65778C13.4381 3.65778 15.9594 6.24455 15.9594 9.38796C15.9594 9.94461 15.5337 10.3703 14.977 10.3703C14.4531 10.3703 13.9947 9.94461 13.9947 9.38796C13.9947 7.3251 12.3575 5.62241 10.3274 5.62241C9.77075 5.62241 9.34507 5.19674 9.34507 4.64009C9.34507 4.08345 9.77075 3.65778 10.3274 3.65778Z" fill="#5E3E00"/>
<path d="M10 35.5831C10.5239 35.5831 11.0151 35.2556 11.1788 34.7645L19.9214 12.957C20.0524 12.6623 20.0196 12.3021 19.8232 12.0402C19.6267 11.7782 19.332 11.6145 19.0046 11.6145L13.4381 11.68C12.8815 11.68 12.4558 12.1384 12.4558 12.6623C12.4558 13.2189 12.9142 13.6446 13.4381 13.6446L17.5311 13.6119L10 32.4396L2.43615 13.6119H9.1814V14.2667C9.1814 15.7075 10.3602 16.8863 11.8009 16.8863C12.3576 16.8863 12.7832 16.4606 12.7832 15.9039C12.7832 15.3473 12.3576 14.9216 11.8009 14.9216C11.4407 14.9216 11.146 14.6269 11.146 14.2667V12.6295C11.146 12.0729 10.7204 11.6472 10.1637 11.6472H0.995415C0.667976 11.6472 0.37328 11.811 0.176817 12.0729C-0.0196476 12.3349 -0.0523911 12.695 0.0785847 12.9897L8.82122 34.7645C8.98494 35.2556 9.4761 35.5831 10 35.5831ZM1.09365 10.6977C2.10871 10.6977 2.9928 9.94455 3.09103 8.89674C3.48396 5.32765 6.46365 2.67539 10 2.67539C13.5363 2.67539 16.516 5.36039 16.909 8.89674C17.0072 9.9118 17.8913 10.6977 18.9064 10.6977C19.463 10.6977 19.8887 10.272 19.8887 9.71534C19.8887 9.15869 19.463 8.73302 18.9064 8.73302C18.8736 8.73302 18.8409 8.70028 18.8409 8.70028C18.3497 4.14887 14.5514 0.710754 10 0.710754C5.44859 0.710754 1.65029 4.14887 1.15914 8.70028C1.15914 8.73302 1.12639 8.73302 1.09365 8.73302C0.537001 8.73302 0.11133 9.15869 0.11133 9.71534C0.11133 10.272 0.537001 10.6977 1.09365 10.6977Z" fill="#5E3E00"/>
</svg>
