<svg width="34" height="20" viewBox="0 0 34 20" fill="none" xmlns="http://www.w3.org/2000/svg">
<path d="M31.7749 13.2524L26.6481 16.3018C26.7792 17.0395 27.1657 17.7076 27.7397 18.1891C28.3138 18.6705 29.039 18.9348 29.7882 18.9355C30.6361 18.9355 31.4493 18.5987 32.0489 17.9991C32.6484 17.3996 32.9853 16.5864 32.9853 15.7385C32.9853 14.7282 32.507 13.8381 31.7749 13.2524Z" stroke="#5E3E00" stroke-width="1.5" stroke-miterlimit="10" stroke-linecap="round" stroke-linejoin="round"/>
<path d="M20.8364 1.03223C21.1756 1.03223 21.5008 1.16696 21.7407 1.40679C21.9805 1.64661 22.1152 1.97188 22.1152 2.31105L20.197 11.9022C20.197 12.2414 20.0623 12.5667 19.8224 12.8065C19.5826 13.0463 19.2573 13.181 18.9182 13.181H15.0817C14.7425 13.181 14.4173 13.0463 14.1774 12.8065C13.9376 12.5667 13.8029 12.2414 13.8029 11.9022L11.8846 2.31105C11.8846 1.97188 12.0194 1.64661 12.2592 1.40679C12.499 1.16696 12.8243 1.03223 13.1635 1.03223H20.8364Z" stroke="#5E3E00" stroke-width="1.5" stroke-miterlimit="10" stroke-linecap="round" stroke-linejoin="round"/>
<path d="M28.187 5.23693L22.3013 2.73938C22.2188 2.70483 22.1332 2.67869 22.0455 2.66138L20.197 11.9021C20.197 12.4661 19.8299 12.9393 19.3229 13.1094C19.4514 13.2718 19.6164 13.408 19.8197 13.4943L22.174 14.4937C22.3286 14.5593 22.4947 14.5939 22.6627 14.5954C22.8306 14.5968 22.9973 14.5652 23.153 14.5023C23.3088 14.4393 23.4506 14.3463 23.5704 14.2285C23.6902 14.1108 23.7856 13.9706 23.8512 13.8159L28.8654 6.91474C28.9311 6.76012 28.9657 6.59407 28.9671 6.42609C28.9686 6.25811 28.937 6.09148 28.874 5.93573C28.8111 5.77998 28.7181 5.63816 28.6003 5.51837C28.4825 5.39857 28.3423 5.30315 28.1877 5.23756L28.187 5.23693Z" stroke="#5E3E00" stroke-width="1.5" stroke-miterlimit="10" stroke-linecap="round" stroke-linejoin="round"/>
<path d="M32.6094 10.929L28.9289 7.37643C28.8505 7.30191 28.7625 7.23806 28.6674 7.18652L23.8514 13.8159C23.7381 14.0805 23.538 14.2986 23.2842 14.4343C23.2011 14.8473 23.3206 15.2936 23.6467 15.6076L24.5669 16.4964C24.6877 16.613 24.8303 16.7047 24.9866 16.7662C25.1428 16.8277 25.3097 16.8578 25.4776 16.8549C25.6455 16.8519 25.8112 16.8159 25.9652 16.7489C26.1192 16.6819 26.2585 16.5852 26.3751 16.4644L32.6407 12.7379C32.7575 12.6171 32.8493 12.4745 32.9109 12.3182C32.9726 12.1619 33.0028 11.9949 32.9999 11.827C32.997 11.659 32.961 11.4932 32.894 11.3391C32.827 11.185 32.7303 11.0457 32.6094 10.929V10.929Z" stroke="#5E3E00" stroke-width="1.5" stroke-miterlimit="10" stroke-linecap="round" stroke-linejoin="round"/>
<path d="M2.22505 13.2524L7.35185 16.3018C7.2207 17.0395 6.83426 17.7076 6.26018 18.1891C5.68611 18.6705 4.96097 18.9348 4.2117 18.9355C3.36379 18.9355 2.55061 18.5987 1.95104 17.9991C1.35148 17.3996 1.01465 16.5864 1.01465 15.7385C1.01465 14.7282 1.49293 13.8381 2.22505 13.2524Z" stroke="#5E3E00" stroke-width="1.5" stroke-miterlimit="10" stroke-linecap="round" stroke-linejoin="round"/>
<path d="M5.81287 5.23693L11.6986 2.73938C11.7818 2.70358 11.8687 2.67864 11.9544 2.66138L13.803 11.9021C13.803 12.4661 14.17 12.9393 14.677 13.1094C14.5464 13.2773 14.3755 13.4097 14.1802 13.4943L11.8259 14.4937C11.6713 14.5593 11.5052 14.5939 11.3372 14.5954C11.1693 14.5968 11.0026 14.5652 10.8469 14.5023C10.6911 14.4393 10.5493 14.3463 10.4295 14.2285C10.3097 14.1108 10.2143 13.9706 10.1487 13.8159L5.13445 6.91474C5.06879 6.76012 5.03424 6.59407 5.03276 6.42609C5.03129 6.25811 5.06293 6.09148 5.12587 5.93573C5.18881 5.77998 5.28182 5.63816 5.39959 5.51837C5.51736 5.39857 5.65757 5.30315 5.81223 5.23756L5.81287 5.23693Z" stroke="#5E3E00" stroke-width="1.5" stroke-miterlimit="10" stroke-linecap="round" stroke-linejoin="round"/>
<path d="M1.39068 10.929L5.07113 7.37643C5.15106 7.29906 5.2393 7.23832 5.33265 7.18652L10.1487 13.8159C10.2657 14.0922 10.471 14.3006 10.7159 14.4343C10.7592 14.6445 10.7487 14.8624 10.6853 15.0675C10.6219 15.2726 10.5077 15.4584 10.3533 15.6076L9.43319 16.4964C9.31236 16.613 9.16974 16.7047 9.01348 16.7662C8.85721 16.8277 8.69036 16.8578 8.52244 16.8549C8.35453 16.8519 8.18885 16.8159 8.03486 16.7489C7.88086 16.6819 7.74157 16.5852 7.62494 16.4644L1.35935 12.7379C1.24258 12.6171 1.15076 12.4745 1.08913 12.3182C1.0275 12.1619 0.997282 11.9949 1.00019 11.827C1.0031 11.659 1.03909 11.4932 1.10609 11.3391C1.17309 11.185 1.26979 11.0457 1.39068 10.929Z" stroke="#5E3E00" stroke-width="1.5" stroke-miterlimit="10" stroke-linecap="round" stroke-linejoin="round"/>
</svg>
