<svg width="32" height="30" viewBox="0 0 32 30" fill="none" xmlns="http://www.w3.org/2000/svg">
<path d="M19.8206 1.58307C19.8206 1.58307 18.3344 2.10502 16 2.10502C13.6655 2.10502 12.1793 1.58307 12.1793 1.58307C11.9444 1.58308 11.7113 1.62278 11.4897 1.70051L1.38538 5.23671L2.47038 10.9782L5.65949 11.3383C6.05004 11.3825 6.40968 11.572 6.667 11.869C6.92433 12.1661 7.06052 12.5491 7.04853 12.942L6.60487 28.7244H25.395L24.9514 12.942C24.9394 12.5491 25.0756 12.1661 25.3329 11.869C25.5902 11.572 25.9499 11.3825 26.3404 11.3383L29.5295 10.9782L30.6145 5.23671L20.5103 1.70051C20.2886 1.62278 20.0555 1.58308 19.8206 1.58307Z" stroke="#594138" stroke-width="2" stroke-linecap="round" stroke-linejoin="round"/>
<path d="M21.0353 1.89008C20.7399 3.36919 20.0861 4.67681 19.1755 5.60963C18.2649 6.54244 17.1486 7.04816 16 7.04816C14.8514 7.04816 13.7351 6.54244 12.8245 5.60963C11.9139 4.67681 11.2601 3.36919 10.9647 1.89008" stroke="#594138" stroke-width="2" stroke-linecap="round" stroke-linejoin="round"/>
</svg>
