<svg width="30" height="30" viewBox="0 0 30 30" fill="none" xmlns="http://www.w3.org/2000/svg">
<path d="M1 18.1112C2.29129 19.1098 4.23132 19.6932 6.44518 19.6667C8.65903 19.6932 10.5991 19.1098 11.8904 18.1112C13.1816 17.1125 15.1217 16.5292 17.3355 16.5556C19.5494 16.5292 21.4894 17.1125 22.7807 18.1112" stroke="#602915" stroke-width="2" stroke-linecap="round" stroke-linejoin="round"/>
<path d="M8.77875 1C8.28636 1.35338 7.88741 1.82129 7.61636 2.36333C7.3453 2.90537 7.21029 3.50523 7.22299 4.11112C7.21029 4.717 7.3453 5.31687 7.61636 5.85891C7.88741 6.40095 8.28636 6.86886 8.77875 7.22224" stroke="#602915" stroke-width="2" stroke-linecap="round" stroke-linejoin="round"/>
<path d="M15.0019 1C14.5095 1.35338 14.1106 1.82129 13.8395 2.36333C13.5684 2.90537 13.4334 3.50523 13.4461 4.11112C13.4334 4.717 13.5684 5.31687 13.8395 5.85891C14.1106 6.40095 14.5095 6.86886 15.0019 7.22224" stroke="#602915" stroke-width="2" stroke-linecap="round" stroke-linejoin="round"/>
<path d="M1 10.9211H22.7807V18.6989C22.7807 21.1743 21.7973 23.5483 20.0467 25.2986C18.2961 27.049 15.9218 28.0323 13.4461 28.0323H10.3346C7.8589 28.0323 5.48461 27.049 3.73404 25.2986C1.98346 23.5483 1 21.1743 1 18.6989V10.9211Z" stroke="#602915" stroke-width="2" stroke-linecap="round" stroke-linejoin="round"/>
<path d="M22.3855 22.3516C23.0803 22.6705 23.8428 22.8139 24.606 22.7692C25.3692 22.7244 26.1097 22.4929 26.7625 22.0949C27.4152 21.697 27.9602 21.1448 28.3495 20.4869C28.7388 19.829 28.9606 19.0856 28.9952 18.322C29.0299 17.5584 28.8764 16.7979 28.5482 16.1075C28.2201 15.4171 27.7273 14.8178 27.1133 14.3624C26.4993 13.907 25.7828 13.6094 25.0268 13.4957C24.2707 13.382 23.4984 13.4558 22.7775 13.7105" stroke="#602915" stroke-width="2" stroke-linecap="round" stroke-linejoin="round"/>
</svg>
